# xmcd
# 
# Track frame offsets:
#     182
#     58080
#     94122
#     133602
#     154855
#     191340
# 
# Disc length: 3088
# 
# Revision: 2
# Processed by: cddbd v1.5.2PL0 Copyright (c) Steve Scherf et al.
# Submitted via: BonkEnc v1.0.6
# 
DISCID=4a0c0e06
DTITLE=Stan Getz - Live at Montmartre
DYEAR=1977
DGENRE=Jazz
TTITLE0=Morning Star
TTITLE1=Lady Sing The Blues
TTITLE2=Cancao Do Sol
TTITLE3=Lush Life
TTITLE4=Stan's Blues
TTITLE5=La Fiesta
EXTD=
EXTT0=
EXTT1=
EXTT2=
EXTT3=
EXTT4=
EXTT5=
PLAYORDER=
